# xmcd
#
# Track frame offsets:
#	150
#	12170
#	26350
#	37615
#	49810
#	61527
#	79747
#	92125
#	104662
#	116772
#	129007
#	138970
#	157102
#	168087
#	181712
#	194740
#	205332
#	214612
#
# Disc length: 3014 seconds
#
# Revision: 1
# Processed by: cddbd v1.4b41PL2 Copyright (c) Steve Scherf et al.
# Submitted via: audiograbber 1.80
#
DISCID=e40bc412
DTITLE=Various Artist - 30 Years Of No. 1 Country Hits Disc #3
DYEAR=1900
DGENRE=
TTITLE0=Eddy Arnold - Make The World Go Away
TTITLE1=Jim Reeves - This Is It
TTITLE2=Sonny James - Take Good Care Of Her
TTITLE3=Del Reeves - Girl On The Billboard
TTITLE4=Jack Green - There Goes My Everything
TTITLE5=Red Sovine - Giddy Up Go
TTITLE6=Merle Haggard - Okie From Muskogee
TTITLE7=Bill Anderson and Jan Howard - For Loving You
TTITLE8=Glen Campbell - Galveston
TTITLE9=Jack Green - All The Time
TTITLE10=Loretta Lynn - Fist City
TTITLE11=Bobby Goldsboro - Honey
TTITLE12=Conway Twitty - Hello Darlin'
TTITLE13=Loretta Lynn - Coal Miner's Daughter
TTITLE14=Merle Haggard - Fightin' Side Of Me
TTITLE15=Jerry Reed - When You're Hot You're Hot
TTITLE16=Charley Pride - Kiss An Angel Good Mornin'
TTITLE17=Sammi Smith - Help Me Make It Through The Night
EXTD=
EXTT0=
EXTT1=
EXTT2=
EXTT3=
EXTT4=
EXTT5=
EXTT6=
EXTT7=
EXTT8=
EXTT9=
EXTT10=
EXTT11=
EXTT12=
EXTT13=
EXTT14=
EXTT15=
EXTT16=
EXTT17=
PLAYORDER=
